HIERARCHY
ROOT hip
{
  OFFSET 0 0 0
  CHANNELS 6 Xposition Yposition Zposition Zrotation Yrotation Xrotation
  JOINT abdomen
  {
    OFFSET 0 20.6881 -0.73152
    CHANNELS 3 Zrotation Xrotation Yrotation
    JOINT chest
    {
      OFFSET 0 11.7043 -0.48768
      CHANNELS 3 Zrotation Xrotation Yrotation
      JOINT neck
      {
        OFFSET 0 22.1894 -2.19456
        CHANNELS 3 Zrotation Xrotation Yrotation
        JOINT head
        {
          OFFSET -0.24384 7.07133 1.2192
          CHANNELS 3 Zrotation Xrotation Yrotation
          JOINT leftEye
          {
            OFFSET 4.14528 8.04674 8.04672
            CHANNELS 3 Zrotation Xrotation Yrotation
            End Site
            {
              OFFSET 1 0 0
            }
          }
          JOINT rightEye
          {
            OFFSET -3.6576 8.04674 8.04672
            CHANNELS 3 Zrotation Xrotation Yrotation
            End Site
            {
              OFFSET 1 0 0
            }
          }
        }
      }
      JOINT rCollar
      {
        OFFSET -2.68224 19.2634 -4.8768
        CHANNELS 3 Zrotation Xrotation Yrotation
        JOINT rShldr
        {
          OFFSET -8.77824 -1.95073 1.46304
          CHANNELS 3 Zrotation Xrotation Yrotation
          JOINT rForeArm
          {
            OFFSET -28.1742 -1.7115 0.48768
            CHANNELS 3 Zrotation Xrotation Yrotation
            JOINT rHand
            {
              OFFSET -22.5879 0.773209 7.07136
              CHANNELS 3 Zrotation Xrotation Yrotation
              JOINT rThumb1
              {
                OFFSET -1.2192 -0.487915 3.41376
                CHANNELS 3 Zrotation Xrotation Yrotation
                JOINT rThumb2
                {
                  OFFSET -3.37035 -0.52449 3.41376
                  CHANNELS 3 Zrotation Xrotation Yrotation
                  End Site
                  {
                    OFFSET -1.78271 -1.18214 1.43049
                  }
                }
              }
              JOINT rIndex1
              {
                OFFSET -7.75947 0.938293 5.60832
                CHANNELS 3 Zrotation Xrotation Yrotation
                JOINT rIndex2
                {
                  OFFSET -2.54057 -0.884171 1.56538
                  CHANNELS 3 Zrotation Xrotation Yrotation
                  End Site
                  {
                    OFFSET -1.62519 -0.234802 1.16502
                  }
                }
              }
              JOINT rMid1
              {
                OFFSET -8.24714 1.18213 3.41376
                CHANNELS 3 Zrotation Xrotation Yrotation
                JOINT rMid2
                {
                  OFFSET -3.10165 -0.590103 1.0647
                  CHANNELS 3 Zrotation Xrotation Yrotation
                  End Site
                  {
                    OFFSET -2.48547 -0.328903 0.83742
                  }
                }
              }
              JOINT rRing1
              {
                OFFSET -8.82822 0.546677 1.51678
                CHANNELS 3 Zrotation Xrotation Yrotation
                JOINT rRing2
                {
                  OFFSET -2.60934 -0.819778 -0.0198488
                  CHANNELS 3 Zrotation Xrotation Yrotation
                  End Site
                  {
                    OFFSET -2.33842 -0.294052 0.168128
                  }
                }
              }
              JOINT rPinky1
              {
                OFFSET -8.27202 -0.0477905 -0.4584
                CHANNELS 3 Zrotation Xrotation Yrotation
                JOINT rPinky2
                {
                  OFFSET -1.82734 -0.647385 -0.700984
                  CHANNELS 3 Zrotation Xrotation Yrotation
                  End Site
                  {
                    OFFSET -1.69225 -0.51767 -0.607171
                  }
                }
              }
            }
          }
        }
      }
      JOINT lCollar
      {
        OFFSET 2.68224 19.2634 -4.8768
        CHANNELS 3 Zrotation Xrotation Yrotation
        JOINT lShldr
        {
          OFFSET 8.77824 -1.95073 1.46304
          CHANNELS 3 Zrotation Xrotation Yrotation
          JOINT lForeArm
          {
            OFFSET 28.1742 -1.7115 0.48768
            CHANNELS 3 Zrotation Xrotation Yrotation
            JOINT lHand
            {
              OFFSET 22.5879 0.773209 7.07136
              CHANNELS 3 Zrotation Xrotation Yrotation
              JOINT lThumb1
              {
                OFFSET 1.2192 -0.487915 3.41376
                CHANNELS 3 Zrotation Xrotation Yrotation
                JOINT lThumb2
                {
                  OFFSET 3.37035 -0.52449 3.41376
                  CHANNELS 3 Zrotation Xrotation Yrotation
                  End Site
                  {
                    OFFSET 1.78271 -1.18214 1.43049
                  }
                }
              }
              JOINT lIndex1
              {
                OFFSET 7.75947 0.938293 5.60832
                CHANNELS 3 Zrotation Xrotation Yrotation
                JOINT lIndex2
                {
                  OFFSET 2.54057 -0.884171 1.56538
                  CHANNELS 3 Zrotation Xrotation Yrotation
                  End Site
                  {
                    OFFSET 1.62519 -0.234802 1.16502
                  }
                }
              }
              JOINT lMid1
              {
                OFFSET 8.24714 1.18213 3.41376
                CHANNELS 3 Zrotation Xrotation Yrotation
                JOINT lMid2
                {
                  OFFSET 3.10165 -0.590103 1.0647
                  CHANNELS 3 Zrotation Xrotation Yrotation
                  End Site
                  {
                    OFFSET 2.48547 -0.328903 0.83742
                  }
                }
              }
              JOINT lRing1
              {
                OFFSET 8.82822 0.546677 1.51678
                CHANNELS 3 Zrotation Xrotation Yrotation
                JOINT lRing2
                {
                  OFFSET 2.60934 -0.819778 -0.0198488
                  CHANNELS 3 Zrotation Xrotation Yrotation
                  End Site
                  {
                    OFFSET 2.33842 -0.294052 0.168128
                  }
                }
              }
              JOINT lPinky1
              {
                OFFSET 8.27202 -0.0477905 -0.4584
                CHANNELS 3 Zrotation Xrotation Yrotation
                JOINT lPinky2
                {
                  OFFSET 1.82734 -0.647385 -0.700984
                  CHANNELS 3 Zrotation Xrotation Yrotation
                  End Site
                  {
                    OFFSET 1.69225 -0.51767 -0.607171
                  }
                }
              }
            }
          }
        }
      }
    }
  }
  JOINT rButtock
  {
    OFFSET -8.77824 4.35084 1.2192
    CHANNELS 3 Zrotation Xrotation Yrotation
    JOINT rThigh
    {
      OFFSET 0 -1.70687 -2.19456
      CHANNELS 3 Zrotation Xrotation Yrotation
      JOINT rShin
      {
        OFFSET 0 -36.8199 0.73152
        CHANNELS 3 Zrotation Xrotation Yrotation
        JOINT rFoot
        {
          OFFSET 0.73152 -45.1104 -5.12064
          CHANNELS 3 Zrotation Xrotation Yrotation
          End Site
          {
            OFFSET -1.1221 -3.69964 12.103
          }
        }
      }
    }
  }
  JOINT lButtock
  {
    OFFSET 8.77824 4.35084 1.2192
    CHANNELS 3 Zrotation Xrotation Yrotation
    JOINT lThigh
    {
      OFFSET 0 -1.70687 -2.19456
      CHANNELS 3 Zrotation Xrotation Yrotation
      JOINT lShin
      {
        OFFSET 0 -36.8199 0.73152
        CHANNELS 3 Zrotation Xrotation Yrotation
        JOINT lFoot
        {
          OFFSET -0.73152 -45.1104 -5.12064
          CHANNELS 3 Zrotation Xrotation Yrotation
          End Site
          {
            OFFSET 1.1221 -3.69964 12.103
          }
        }
      }
    }
  }
}
MOTION
Frames:	4
Frame Time:	0.03333
-2.352639986202121 48.775678873062134 -7.836077525280416 10.680708885192871 28.469125747680664 9.954344749450684 -19.07545280456543 11.247323036193848 3.9937944412231445 5.467070579528809 -8.485574722290039 1.2284653186798096 -8.708137512207031 17.416522979736328 -11.992695808410645 11.36060619354248 -27.77715492248535 -21.13232421875 0.06451556831598282 0.1839471161365509 0.23271776735782623 -0.10951001197099686 -0.05522674694657326 0.0004491175932344049 -0.06235944852232933 -0.021520348265767097 -0.0806233212351799 28.57634735107422 13.307559967041016 38.90066909790039 -15.311135292053223 -8.148191452026367 28.461830139160156 -0.581130862236023 18.5839900970459 2.7861487865448 -0.10384652763605118 -0.1331818550825119 0.0023601336870342493 0.033857524394989014 -0.0042971535585820675 0.03484836965799332 0.14535744488239288 -0.1333712637424469 0.009619129821658134 7.626126289367676 5.347682952880859 0.43929314613342285 -0.0015541291795670986 -0.0004181978292763233 0.08806807547807693 2.7637100219726562 1.0282405614852905 0.061641108244657516 0.00570206344127655 -0.12072160094976425 -0.23263412714004517 10.207398414611816 0.7117018699645996 0.014417401514947414 -0.08742315322160721 -0.007100732531398535 0.10397263616323471 2.1956915855407715 -0.7238993644714355 -0.2849922776222229 -0.008648722432553768 -0.10994412004947662 -0.09649989753961563 -105.5465087890625 56.044090270996094 42.138816833496094 28.28270721435547 -38.951690673828125 -81.99650573730469 2.3921947479248047 -38.27598571777344 6.414408206939697 0.1331736445426941 0.05220823362469673 -0.024394329637289047 0.005842858925461769 -0.09616953879594803 0.18108011782169342 -0.18068596720695496 0.0919056087732315 -0.07385726273059845 -7.715452194213867 5.466798782348633 -0.27654847502708435 -0.09292459487915039 0.041469283401966095 -0.1057056114077568 -2.870715856552124 0.961796760559082 0.031883709132671356 0.0008950982592068613 0.04382525011897087 -0.007670973893254995 -10.280888557434082 0.6640708446502686 0.10773599147796631 -0.16041365265846252 0.08479941636323929 -0.15635569393634796 -2.3643994331359863 -0.7538810968399048 0.2310439497232437 -0.11858782917261124 0.06173546984791756 0.07176537811756134 -79.13499450683594 -57.35606002807617 -69.04460906982422 -4.424088954925537 80.68824768066406 4.677090644836426 2.0360114574432373 -3.562256336212158 11.992021560668945 0.031568337231874466 -0.281342476606369 -0.13813672959804535 14.460370063781738 15.99451732635498 1.9626805782318115 -0.034661587327718735 31.120914459228516 -3.2490286827087402 6.522302150726318 -14.761994361877441 33.88630676269531
-2.5138867553323507 48.68309497833252 -8.172568050213158 10.680521011352539 28.345029830932617 10.13822078704834 -18.892393112182617 11.499732971191406 3.8822946548461914 5.401595592498779 -8.597979545593262 1.1955970525741577 -8.685064315795898 17.309694290161133 -11.889476776123047 11.330387115478516 -27.99068832397461 -20.895267486572266 0.06321253627538681 0.1887725442647934 0.23320302367210388 -0.09567482024431229 -0.05837614834308624 0.005460634361952543 -0.06225486472249031 -0.003813772462308407 -0.06655020266771317 28.178234100341797 13.143254280090332 39.135658264160156 -15.309914588928223 -8.1417236328125 28.444095611572266 -0.5720267295837402 18.440248489379883 2.745181083679199 -0.10435772687196732 -0.14924512803554535 -0.014169763773679733 0.02565419115126133 -0.003034415654838085 0.039717257022857666 0.153167724609375 -0.13491952419281006 0.0048669008538126945 7.644046783447266 5.332016944885254 0.4316580593585968 -0.003575156209990382 -0.0023430180735886097 0.09664992988109589 2.7589564323425293 1.031783103942871 0.0707886815071106 0.00027489400235936046 -0.10807128995656967 -0.23827116191387177 10.21342945098877 0.7097614407539368 0.01050934661179781 -0.0878894180059433 4.997217547497712e-05 0.0970475971698761 2.198418617248535 -0.7364161014556885 -0.28491345047950745 -0.009356766939163208 -0.12089890241622925 -0.10256607830524445 -104.62672424316406 56.654212951660156 41.04829406738281 28.30480194091797 -38.73555374145508 -81.63677215576172 2.4061942100524902 -38.383026123046875 6.425743103027344 0.12942570447921753 0.05188262090086937 -0.027905751019716263 0.008536879904568195 -0.10865310579538345 0.18439650535583496 -0.18375658988952637 0.08904992789030075 -0.07433392852544785 -7.705754280090332 5.4638991355896 -0.2806520164012909 -0.09140808880329132 0.04386189952492714 -0.11585638672113419 -2.8712501525878906 0.959427535533905 0.030253000557422638 0.0063416301272809505 0.059438757598400116 0.0007314484682865441 -10.283750534057617 0.6695091128349304 0.11306695640087128 -0.1701592206954956 0.0848698541522026 -0.16212931275367737 -2.3729755878448486 -0.7504073977470398 0.23293648660182953 -0.12169945240020752 0.07360446453094482 0.08172814548015594 -79.71712493896484 -57.55370330810547 -69.61614227294922 -4.529663562774658 80.98351287841797 4.792323112487793 1.8473612070083618 -3.615285873413086 10.988895416259766 0.03386768698692322 -0.27566012740135193 -0.14575980603694916 14.4857816696167 15.960827827453613 1.8672348260879517 -0.04016413539648056 31.019128799438477 -3.259495496749878 6.508759021759033 -14.688472747802734 33.897132873535156
-2.6675501372665167 48.6408531665802 -8.481540367938578 10.644610404968262 28.526185989379883 10.149934768676758 -18.877534866333008 11.575669288635254 3.8117871284484863 5.3869452476501465 -8.664971351623535 1.1849526166915894 -8.715219497680664 17.27996253967285 -11.978527069091797 11.349451065063477 -27.95585060119629 -20.99932098388672 0.055447306483983994 0.18400217592716217 0.2175557017326355 -0.06206841394305229 -0.05928657948970795 0.009509609080851078 -0.07221722602844238 0.0208514966070652 -0.046423282474279404 28.14776039123535 13.068563461303711 39.0303840637207 -15.268136024475098 -8.113417625427246 28.385847091674805 -0.5554470419883728 18.366653442382812 2.7378454208374023 -0.09816421568393707 -0.17076686024665833 -0.030370773747563362 0.017203152179718018 0.01184238214045763 0.048916637897491455 0.14641067385673523 -0.14095965027809143 -0.006407633423805237 7.656266212463379 5.325417518615723 0.41926270723342896 -0.003672876860946417 -0.00376315601170063 0.10329359769821167 2.755903959274292 1.0397939682006836 0.07359039783477783 -0.021213781088590622 -0.09708865731954575 -0.2347905933856964 10.214548110961914 0.7119021415710449 0.012036198750138283 -0.10317052900791168 0.013132124207913876 0.10363370925188065 2.196594476699829 -0.744875967502594 -0.2794490158557892 0.003461400745436549 -0.12848520278930664 -0.09709645062685013 -104.31112670898438 56.58423614501953 40.79458999633789 28.32529640197754 -38.575782775878906 -81.30352020263672 2.4146242141723633 -38.42878341674805 6.434322357177734 0.1259024292230606 0.05932347849011421 -0.027841877192258835 0.006216391921043396 -0.11648771911859512 0.18012551963329315 -0.1898997277021408 0.06627901643514633 -0.07780144363641739 -7.697744846343994 5.454296588897705 -0.28868818283081055 -0.10697167366743088 0.044031642377376556 -0.12203165143728256 -2.8653976917266846 0.9531868100166321 0.040182165801525116 0.003162063891068101 0.07243145257234573 0.0024720176588743925 -10.290102005004883 0.6649693846702576 0.11788241565227509 -0.16898132860660553 0.07630343735218048 -0.17220740020275116 -2.3886802196502686 -0.7495533227920532 0.2219783216714859 -0.12856422364711761 0.09459399431943893 0.08080031722784042 -79.82268524169922 -57.59015655517578 -69.53929901123047 -4.373688220977783 80.89978790283203 4.637599468231201 1.79867684841156 -3.5789923667907715 10.584210395812988 0.029765432700514793 -0.2704394459724426 -0.14792655408382416 14.544700622558594 16.247386932373047 1.7193576097488403 -0.06376827508211136 30.48436164855957 -3.2570531368255615 6.476345062255859 -14.684432983398438 33.92344665527344
-2.8111025225371122 48.67256283760071 -8.754563867114484 10.573368072509766 28.791780471801758 10.023713111877441 -18.994604110717773 11.501375198364258 3.8221120834350586 5.42310905456543 -8.676508903503418 1.1997711658477783 -8.779035568237305 17.312997817993164 -12.179062843322754 11.385000228881836 -27.73198127746582 -21.31800079345703 0.045311689376831055 0.17366638779640198 0.20281663537025452 -0.02735201269388199 -0.04500367119908333 0.015749886631965637 -0.08439759165048599 0.04755359888076782 -0.0301224272698164 28.35317611694336 13.115172386169434 38.80387496948242 -15.237022399902344 -8.107779502868652 28.361024856567383 -0.5324323773384094 18.38742446899414 2.7615058422088623 -0.09044644236564636 -0.19366639852523804 -0.03879818692803383 0.020872723311185837 0.039774324744939804 0.06167193502187729 0.1294006109237671 -0.1470731943845749 -0.008683865889906883 7.660023212432861 5.326904773712158 0.41185832023620605 -0.005901730619370937 -0.004214127082377672 0.10675442218780518 2.758829116821289 1.0455771684646606 0.06166011467576027 -0.04545687139034271 -0.09077325463294983 -0.21975944936275482 10.209888458251953 0.722075879573822 0.012247191742062569 -0.12638314068317413 0.026077428832650185 0.1237826719880104 2.192359447479248 -0.7458872199058533 -0.26528018712997437 0.02476859651505947 -0.13991256058216095 -0.0764622613787651 -104.50875091552734 56.09357833862305 41.20150375366211 28.34485626220703 -38.5235710144043 -81.12163543701172 2.4093358516693115 -38.382728576660156 6.430294990539551 0.12286277115345001 0.06763138622045517 -0.018232645466923714 0.0016967849805951118 -0.12299485504627228 0.167973130941391 -0.19442743062973022 0.027736114338040352 -0.07924671471118927 -7.696372985839844 5.430089950561523 -0.2966358959674835 -0.12833550572395325 0.04388423264026642 -0.12106923013925552 -2.8521597385406494 0.9398800730705261 0.055623602122068405 -0.007316740695387125 0.08086103200912476 -0.006099981721490622 -10.295281410217285 0.6547022461891174 0.12214729189872742 -0.1585855931043625 0.06230659782886505 -0.18633976578712463 -2.403549909591675 -0.7488394975662231 0.20548775792121887 -0.14083082973957062 0.1158338263630867 0.0695563554763794 -79.55888366699219 -57.526512145996094 -68.99678039550781 -4.157502174377441 80.59054565429688 4.410080909729004 1.8928768634796143 -3.4765214920043945 10.775796890258789 0.019588761031627655 -0.2665230929851532 -0.14815649390220642 14.577832221984863 16.646635055541992 1.607413649559021 -0.07401877641677856 29.820236206054688 -3.247868061065674 6.4276838302612305 -14.707500457763672 33.95257568359375
